@startuml
class Game {
  -currentAction: String
  +startGame(): Void
  +updateState(action: String): Void
}

class Player {
  +rollDice(dice: Dice): Int
}

class Dice {
  -value: Int
  +randomizeValue(): Int
}

Player --> Game: <<interact>>
Player --> Dice: <<use>>
Game --> Dice: <<determine(action based on value)>>
@enduml