@startuml
class Form(id: generated, visibility: private) {
    - id: String (generated)
    + visibility: boolean
    
    + addElement(): Void
    - viewElement(String name): Void
    - removeElement(): Void
}

class Element(label: String, value: String, type: String) {
    label: String
    value: String
    type: String
}

Form --> Element
// or using multiplicity notation:
Form *-- Element (1)
@enduml