@startuml
class User {
    - id: int
    + username: string
    + password: string
}

class LoginForm {
    + username: string
    + password: string
    - users: User[]
}

class AuthenticationSystem {
    + loginForm: LoginForm
    - users: User
    - authenticatedUser: User
}

AuthenticationSystem -->LoginForm
AuthenticationSystem --|> User

User "1..*--> LoginForm

@enduml