@startuml
class Administrator {
 + public String username 
 + private boolean enabled
}

class UserAccount {
 + public String accountNumber 
 + private String email 
 + private boolean active 
}

class AccountManagementSystem {
 + private Map<String, UserAccount> accounts 
  - private Administrator administrator 

  + public void addAccount(UserAccount account) {accounts.add(account);}
  + public void removeAccount(String accountNumber) {accounts.remove(accountNumber);}
  + public void deactivateAccount(String accountNumber){accounts.get(accountNumber).active = false;}
}

Administrator --> AccountManagementSystem
AccountManagementSystem --|> UserAccount
UserAccount o---> boolean enabled

@enduml