@startuml

    class User {
      - selectedTopics
      - selectedQuestions
      - generatePdf(pdfBuilder: PdfBuilder)
    }

    class Topic {
      - name
      - questions
    }

    class Question {
      - text
    }

    class PdfBuilder {
      - user: User
      - pdfContent: string
      - buildPdf()
    }

    User "1" --> "*" Topic
    User "1" --> "*" Question
    PdfBuilder "*" --|> User
    Topic "1" ..> Question

    @enduml